<svg width="44" height="40" viewBox="0 0 44 40" fill="none" xmlns="http://www.w3.org/2000/svg">
<g filter="url(#filter0_d_215_105)">
<path d="M39.0151 15.5223C37.0151 23.5223 27.5152 35.0223 21.5152 31.0223C15.5152 27.0223 3.51515 23.0222 4.01515 15.5223C4.51515 8.02234 20.5152 0.52228 21.5152 0.02228C22.5152 -0.47772 41.0151 7.52228 39.0151 15.5223Z" fill="#CA8A04"/>
</g>
<path d="M11.2642 23V8.45455H17.0028C18.1013 8.45455 19.0388 8.65104 19.8153 9.04403C20.5966 9.43229 21.1908 9.9839 21.598 10.6989C22.0099 11.4091 22.2159 12.2448 22.2159 13.206C22.2159 14.1719 22.0076 15.0028 21.5909 15.6989C21.1742 16.3902 20.5705 16.9205 19.7798 17.2898C18.9938 17.6591 18.0421 17.8438 16.9247 17.8438H13.0824V15.3722H16.4276C17.0147 15.3722 17.5024 15.2917 17.8906 15.1307C18.2789 14.9697 18.5677 14.7282 18.7571 14.4062C18.9512 14.0843 19.0483 13.6842 19.0483 13.206C19.0483 12.723 18.9512 12.3158 18.7571 11.9844C18.5677 11.6529 18.2765 11.402 17.8835 11.2315C17.4953 11.0563 17.0052 10.9688 16.4134 10.9688H14.3395V23H11.2642ZM19.1193 16.3807L22.7344 23H19.3395L15.8026 16.3807H19.1193Z" fill="white"/>
<path d="M28.4258 23.0021L23.2695 23.0035L23.2655 8.4581L28.4643 8.45663C29.9274 8.45622 31.1869 8.74706 32.243 9.32915C33.299 9.9065 34.1113 10.7372 34.6798 11.8214C35.253 12.9055 35.5398 14.2027 35.5402 15.7132C35.5407 17.2283 35.2546 18.5305 34.682 19.6197C34.1141 20.7088 33.2975 21.5448 32.2324 22.1274C31.1719 22.7101 29.9031 23.0017 28.4258 23.0021ZM26.3441 20.3677L28.2972 20.3672C29.2063 20.3669 29.9709 20.2057 30.5911 19.8836C31.216 19.5567 31.6846 19.0523 31.9969 18.3704C32.314 17.6838 32.4723 16.7983 32.472 15.714C32.4717 14.6392 32.3129 13.7609 31.9955 13.0792C31.6828 12.3975 31.2162 11.8957 30.5959 11.5739C29.9755 11.2521 29.2108 11.0914 28.3017 11.0916L26.3415 11.0922L26.3441 20.3677Z" fill="white"/>
<defs>
<filter id="filter0_d_215_105" x="0" y="0" width="43.166" height="39.843" filterUnits="userSpaceOnUse" color-interpolation-filters="sRGB">
<feFlood flood-opacity="0" result="BackgroundImageFix"/>
<feColorMatrix in="SourceAlpha" type="matrix" values="0 0 0 0 0 0 0 0 0 0 0 0 0 0 0 0 0 0 127 0" result="hardAlpha"/>
<feOffset dy="4"/>
<feGaussianBlur stdDeviation="2"/>
<feComposite in2="hardAlpha" operator="out"/>
<feColorMatrix type="matrix" values="0 0 0 0 0 0 0 0 0 0 0 0 0 0 0 0 0 0 0.25 0"/>
<feBlend mode="normal" in2="BackgroundImageFix" result="effect1_dropShadow_215_105"/>
<feBlend mode="normal" in="SourceGraphic" in2="effect1_dropShadow_215_105" result="shape"/>
</filter>
</defs>
</svg>
